<mxfile host="app.diagrams.net" agent="Mozilla/5.0 (Windows NT 10.0; Win64; x64) AppleWebKit/537.36 (KHTML, like Gecko) Chrome/129.0.0.0 Safari/537.36 Edg/129.0.0.0" version="24.7.17">
  <diagram name="Страница — 1" id="RAITTl4sN1jPmETc0Y4D">
    <mxGraphModel dx="1426" dy="791" grid="1" gridSize="10" guides="1" tooltips="1" connect="1" arrows="1" fold="1" page="1" pageScale="1" pageWidth="827" pageHeight="1169" math="0" shadow="0">
      <root>
        <mxCell id="0" />
        <mxCell id="1" parent="0" />
        <mxCell id="yfO9gsOK4KFk-MTMvP5r-1" value="" style="shape=umlActor;verticalLabelPosition=bottom;verticalAlign=top;html=1;outlineConnect=0;" vertex="1" parent="1">
          <mxGeometry x="400" y="40" width="40" height="80" as="geometry" />
        </mxCell>
        <mxCell id="yfO9gsOK4KFk-MTMvP5r-3" style="edgeStyle=orthogonalEdgeStyle;rounded=0;orthogonalLoop=1;jettySize=auto;html=1;exitX=0.5;exitY=0;exitDx=0;exitDy=0;" edge="1" parent="1" source="yfO9gsOK4KFk-MTMvP5r-2" target="yfO9gsOK4KFk-MTMvP5r-1">
          <mxGeometry relative="1" as="geometry" />
        </mxCell>
        <mxCell id="yfO9gsOK4KFk-MTMvP5r-5" style="edgeStyle=orthogonalEdgeStyle;rounded=0;orthogonalLoop=1;jettySize=auto;html=1;exitX=0.5;exitY=1;exitDx=0;exitDy=0;entryX=0.5;entryY=0;entryDx=0;entryDy=0;" edge="1" parent="1" source="yfO9gsOK4KFk-MTMvP5r-2" target="yfO9gsOK4KFk-MTMvP5r-4">
          <mxGeometry relative="1" as="geometry" />
        </mxCell>
        <mxCell id="yfO9gsOK4KFk-MTMvP5r-2" value="определение времени занятий" style="ellipse;whiteSpace=wrap;html=1;" vertex="1" parent="1">
          <mxGeometry x="360" y="160" width="120" height="40" as="geometry" />
        </mxCell>
        <mxCell id="yfO9gsOK4KFk-MTMvP5r-8" style="edgeStyle=orthogonalEdgeStyle;rounded=0;orthogonalLoop=1;jettySize=auto;html=1;exitX=0.5;exitY=1;exitDx=0;exitDy=0;entryX=0.5;entryY=0;entryDx=0;entryDy=0;" edge="1" parent="1" source="yfO9gsOK4KFk-MTMvP5r-4" target="yfO9gsOK4KFk-MTMvP5r-7">
          <mxGeometry relative="1" as="geometry" />
        </mxCell>
        <mxCell id="yfO9gsOK4KFk-MTMvP5r-4" value="выбор препода" style="ellipse;whiteSpace=wrap;html=1;" vertex="1" parent="1">
          <mxGeometry x="360" y="240" width="120" height="40" as="geometry" />
        </mxCell>
        <mxCell id="yfO9gsOK4KFk-MTMvP5r-10" style="edgeStyle=orthogonalEdgeStyle;rounded=0;orthogonalLoop=1;jettySize=auto;html=1;exitX=0.5;exitY=1;exitDx=0;exitDy=0;entryX=0.5;entryY=0;entryDx=0;entryDy=0;" edge="1" parent="1" source="yfO9gsOK4KFk-MTMvP5r-7" target="yfO9gsOK4KFk-MTMvP5r-9">
          <mxGeometry relative="1" as="geometry" />
        </mxCell>
        <mxCell id="yfO9gsOK4KFk-MTMvP5r-7" value="заполнение анкеты" style="ellipse;whiteSpace=wrap;html=1;" vertex="1" parent="1">
          <mxGeometry x="360" y="320" width="120" height="40" as="geometry" />
        </mxCell>
        <mxCell id="yfO9gsOK4KFk-MTMvP5r-12" style="edgeStyle=orthogonalEdgeStyle;rounded=0;orthogonalLoop=1;jettySize=auto;html=1;exitX=0.5;exitY=1;exitDx=0;exitDy=0;entryX=0.5;entryY=0;entryDx=0;entryDy=0;" edge="1" parent="1" source="yfO9gsOK4KFk-MTMvP5r-9" target="yfO9gsOK4KFk-MTMvP5r-11">
          <mxGeometry relative="1" as="geometry" />
        </mxCell>
        <mxCell id="yfO9gsOK4KFk-MTMvP5r-9" value="выбор формата занятий" style="ellipse;whiteSpace=wrap;html=1;" vertex="1" parent="1">
          <mxGeometry x="360" y="400" width="120" height="40" as="geometry" />
        </mxCell>
        <mxCell id="yfO9gsOK4KFk-MTMvP5r-14" style="edgeStyle=orthogonalEdgeStyle;rounded=0;orthogonalLoop=1;jettySize=auto;html=1;exitX=0.5;exitY=1;exitDx=0;exitDy=0;entryX=0.5;entryY=0;entryDx=0;entryDy=0;" edge="1" parent="1" source="yfO9gsOK4KFk-MTMvP5r-11" target="yfO9gsOK4KFk-MTMvP5r-13">
          <mxGeometry relative="1" as="geometry" />
        </mxCell>
        <mxCell id="yfO9gsOK4KFk-MTMvP5r-11" value="проверка доступности&amp;nbsp;" style="ellipse;whiteSpace=wrap;html=1;" vertex="1" parent="1">
          <mxGeometry x="360" y="480" width="120" height="40" as="geometry" />
        </mxCell>
        <mxCell id="yfO9gsOK4KFk-MTMvP5r-16" style="edgeStyle=orthogonalEdgeStyle;rounded=0;orthogonalLoop=1;jettySize=auto;html=1;exitX=0;exitY=0.5;exitDx=0;exitDy=0;entryX=0.5;entryY=0;entryDx=0;entryDy=0;" edge="1" parent="1" source="yfO9gsOK4KFk-MTMvP5r-13" target="yfO9gsOK4KFk-MTMvP5r-15">
          <mxGeometry relative="1" as="geometry" />
        </mxCell>
        <mxCell id="yfO9gsOK4KFk-MTMvP5r-22" style="edgeStyle=orthogonalEdgeStyle;rounded=0;orthogonalLoop=1;jettySize=auto;html=1;exitX=1;exitY=0.5;exitDx=0;exitDy=0;entryX=0.5;entryY=0;entryDx=0;entryDy=0;" edge="1" parent="1" source="yfO9gsOK4KFk-MTMvP5r-13" target="yfO9gsOK4KFk-MTMvP5r-21">
          <mxGeometry relative="1" as="geometry" />
        </mxCell>
        <mxCell id="yfO9gsOK4KFk-MTMvP5r-13" value="свободные места" style="rhombus;whiteSpace=wrap;html=1;" vertex="1" parent="1">
          <mxGeometry x="360" y="560" width="120" height="40" as="geometry" />
        </mxCell>
        <mxCell id="yfO9gsOK4KFk-MTMvP5r-18" style="edgeStyle=orthogonalEdgeStyle;rounded=0;orthogonalLoop=1;jettySize=auto;html=1;exitX=0.5;exitY=1;exitDx=0;exitDy=0;entryX=0.5;entryY=0;entryDx=0;entryDy=0;" edge="1" parent="1" source="yfO9gsOK4KFk-MTMvP5r-15" target="yfO9gsOK4KFk-MTMvP5r-17">
          <mxGeometry relative="1" as="geometry" />
        </mxCell>
        <mxCell id="yfO9gsOK4KFk-MTMvP5r-15" value="подтверждение записи" style="ellipse;whiteSpace=wrap;html=1;" vertex="1" parent="1">
          <mxGeometry x="160" y="600" width="120" height="40" as="geometry" />
        </mxCell>
        <mxCell id="yfO9gsOK4KFk-MTMvP5r-20" style="edgeStyle=orthogonalEdgeStyle;rounded=0;orthogonalLoop=1;jettySize=auto;html=1;exitX=0.5;exitY=1;exitDx=0;exitDy=0;entryX=0.5;entryY=0;entryDx=0;entryDy=0;" edge="1" parent="1" source="yfO9gsOK4KFk-MTMvP5r-17" target="yfO9gsOK4KFk-MTMvP5r-19">
          <mxGeometry relative="1" as="geometry" />
        </mxCell>
        <mxCell id="yfO9gsOK4KFk-MTMvP5r-17" value="оплата" style="ellipse;whiteSpace=wrap;html=1;" vertex="1" parent="1">
          <mxGeometry x="160" y="680" width="120" height="40" as="geometry" />
        </mxCell>
        <mxCell id="yfO9gsOK4KFk-MTMvP5r-25" style="edgeStyle=orthogonalEdgeStyle;rounded=0;orthogonalLoop=1;jettySize=auto;html=1;exitX=0.5;exitY=1;exitDx=0;exitDy=0;entryX=0;entryY=0.5;entryDx=0;entryDy=0;" edge="1" parent="1" source="yfO9gsOK4KFk-MTMvP5r-19" target="yfO9gsOK4KFk-MTMvP5r-23">
          <mxGeometry relative="1" as="geometry" />
        </mxCell>
        <mxCell id="yfO9gsOK4KFk-MTMvP5r-19" value="напоминание о занятии" style="ellipse;whiteSpace=wrap;html=1;" vertex="1" parent="1">
          <mxGeometry x="160" y="760" width="120" height="40" as="geometry" />
        </mxCell>
        <mxCell id="yfO9gsOK4KFk-MTMvP5r-24" style="edgeStyle=orthogonalEdgeStyle;rounded=0;orthogonalLoop=1;jettySize=auto;html=1;exitX=0.5;exitY=1;exitDx=0;exitDy=0;entryX=1;entryY=0.5;entryDx=0;entryDy=0;" edge="1" parent="1" source="yfO9gsOK4KFk-MTMvP5r-21" target="yfO9gsOK4KFk-MTMvP5r-23">
          <mxGeometry relative="1" as="geometry" />
        </mxCell>
        <mxCell id="yfO9gsOK4KFk-MTMvP5r-21" value="ожидание свободных мест" style="ellipse;whiteSpace=wrap;html=1;" vertex="1" parent="1">
          <mxGeometry x="560" y="680" width="120" height="40" as="geometry" />
        </mxCell>
        <mxCell id="yfO9gsOK4KFk-MTMvP5r-23" value="" style="rhombus;whiteSpace=wrap;html=1;" vertex="1" parent="1">
          <mxGeometry x="400" y="840" width="40" height="40" as="geometry" />
        </mxCell>
        <mxCell id="yfO9gsOK4KFk-MTMvP5r-26" value="" style="shape=umlActor;verticalLabelPosition=bottom;verticalAlign=top;html=1;outlineConnect=0;" vertex="1" parent="1">
          <mxGeometry x="400" y="920" width="40" height="80" as="geometry" />
        </mxCell>
        <mxCell id="yfO9gsOK4KFk-MTMvP5r-27" style="edgeStyle=orthogonalEdgeStyle;rounded=0;orthogonalLoop=1;jettySize=auto;html=1;exitX=0.5;exitY=1;exitDx=0;exitDy=0;entryX=0.5;entryY=0;entryDx=0;entryDy=0;entryPerimeter=0;" edge="1" parent="1" source="yfO9gsOK4KFk-MTMvP5r-23" target="yfO9gsOK4KFk-MTMvP5r-26">
          <mxGeometry relative="1" as="geometry" />
        </mxCell>
      </root>
    </mxGraphModel>
  </diagram>
</mxfile>
